<?xml version="1.0" encoding="UTF-8" standalone="no"?>
<!-- Created with Inkscape (http://www.inkscape.org/) -->

<svg
   version="1.1"
   id="svg2"
   width="4266.6665"
   height="2666.6667"
   viewBox="0 0 4266.6665 2666.6667"
   sodipodi:docname="10177.eps"
   xmlns:inkscape="http://www.inkscape.org/namespaces/inkscape"
   xmlns:sodipodi="http://sodipodi.sourceforge.net/DTD/sodipodi-0.dtd"
   xmlns="http://www.w3.org/2000/svg"
   xmlns:svg="http://www.w3.org/2000/svg">
  <defs
     id="defs6" />
  <sodipodi:namedview
     id="namedview4"
     pagecolor="#ffffff"
     bordercolor="#666666"
     borderopacity="1.0"
     inkscape:showpageshadow="2"
     inkscape:pageopacity="0.0"
     inkscape:pagecheckerboard="0"
     inkscape:deskcolor="#d1d1d1"
     showgrid="false" />
  <g
     id="g10"
     inkscape:groupmode="layer"
     inkscape:label="Page 1"
     transform="matrix(1.3333333,0,0,-1.3333333,0,2666.6667)">
    <g
       id="g12"
       transform="scale(0.1)">
      <path
         d="M 0,0 H 32000 V 20000 H 0 Z"
         style="fill:#ffffff;fill-opacity:1;fill-rule:nonzero;stroke:none"
         id="path14" />
      <path
         d="m 2788.66,2033 c 0,0 -2003.836,1526.9 -606.58,5176.6 823.74,2151.7 3602.52,1821.4 3461.93,5686 -140.59,3864.6 3985.77,7047.1 9916.69,4877.2 1933.4,-707.3 2842.6,-1759.1 4321.6,-1187.8 2865.2,1106.7 6783.2,650.4 6907,-2899.7 196.4,-5632.7 3112.6,-3119.2 3350.9,-7228.4 81.3,-1400.3 -100.8,-2841.4 -1595.7,-4423.9 H 2788.66"
         style="fill:#ebf3fa;fill-opacity:1;fill-rule:nonzero;stroke:none"
         id="path16" />
      <path
         d="m 14817.8,12980.1 c -536.6,1268 -1780.3,2899.2 -1794.7,3285.9 -0.2,3.9 -0.3,7.7 -0.3,11.5 -3.2,149.7 119.2,248.3 245.1,248.3 64.6,0 130.2,-25.9 180.3,-84.2 1110.8,-1293.7 1369.6,-3461.5 1369.6,-3461.5"
         style="fill:#dce9fa;fill-opacity:1;fill-rule:nonzero;stroke:none"
         id="path18" />
      <path
         d="m 14952.8,12359.4 c -1103.5,1394.8 -3212.1,2999 -3362.8,3475.6 -56.5,178.7 -33.9,293.2 16.5,366.4 48.2,70.2 127,106.9 207.5,106.9 48.6,0 97.8,-13.4 141.2,-40.9 1890.7,-1198.4 2997.6,-3908 2997.6,-3908"
         style="fill:#dce9fa;fill-opacity:1;fill-rule:nonzero;stroke:none"
         id="path20" />
      <path
         d="m 12274.2,13923 c 0,0 -70.1,-1662.5 -378.7,-1630.4 -308.5,32.2 211.7,1847 211.7,1847 0,0 -1315.1,1055.9 -1909.1,1134.6 0,0 557,-1768.7 265.9,-1661.6 -291.1,107.1 -956.29,1920.7 -956.29,1920.7 0,0 -1452.68,633.6 -1905.2,-209.4 -452.52,-842.9 -163.42,-1384.1 48.41,-1492.5 211.82,-108.5 1659.18,-424.8 1578.18,-603.5 -81,-178.7 -1125.13,-252.3 -1629.43,42.6 0,0 255.88,-1619.8 1060.38,-1727.6 804.5,-107.8 1161.27,322.9 1657.25,247.2 495.9,-75.7 821.5,-289.5 547.4,-364.2 -274,-74.6 -1078.14,205.1 -1549.38,-38.1 -471.24,-243.1 -837.7,-375.3 -141.64,-694.9 696.05,-319.7 2029.62,-530.6 2422.52,-29.4 17.2,21.9 33.5,42.7 49.2,62.7 -26.7,-42.7 -49.2,-62.7 -49.2,-62.7 116.6,-109.9 231.7,-531.9 305.2,-852.3 8.6,-53.6 24.5,-128.7 50.1,-231.6 v -0.1 c 9.4,-46 16.8,-83.6 21.8,-109.7 107.9,-704.5 -287.1,-1786 -287.1,-1786 l 146.4,-78.1 c 606.6,1041.5 213.7,2104 213.7,2104 -223.8,822.3 -57.1,1455.1 -57.1,1455.1 0,0 1588.3,460.7 1180.4,1681.2 0,0 -372.4,777.8 -895.4,1077"
         style="fill:#dfebfd;fill-opacity:1;fill-rule:nonzero;stroke:none"
         id="path22" />
      <path
         d="m 18435,10833.5 -150.6,33.2 c 138.4,205.8 254.9,319.2 254.9,319.2 v 0 c 544.9,633.1 664.4,1263.3 664.4,1263.3 0,0 -1210.9,1077.7 -335.1,1985.5 0,0 657.7,531 1246.7,575.1 0,0 -639.5,-1500.5 -352.9,-1602.3 7.7,-2.7 15.5,-4.1 23.3,-4.1 279.5,0.2 568.7,1727.5 568.7,1727.5 0,0 1048.9,247.3 1747,247.3 166.5,0 313.2,-14.1 420.8,-48.9 0,0 -1239.1,-1329.8 -936.4,-1357.9 3.2,-0.3 6.5,-0.4 9.9,-0.4 321.2,0 1646.6,1296.2 1646.6,1296.2 0,0 1552.6,-52.3 1597.3,-989 44.7,-936.8 -439.4,-1293.6 -672.6,-1300.1 -2.3,-0.1 -4.7,-0.1 -7.2,-0.1 -97.9,0 -364.7,48 -655.5,96.1 -290.8,48 -605.6,96 -799.9,96 -114.8,0 -187.5,-16.7 -188.3,-60.1 -3.6,-183.7 810.4,-653.1 1380.7,-653 26.8,0 53.2,1 78.9,3.2 0,0 -762.8,-1111.1 -1472.9,-1111.1 -65.3,0 -130.3,9.5 -194.1,30 -757.3,244.1 -891.3,775.6 -1362,917.9 -184.5,55.8 -354.8,81.8 -481,81.8 -195.7,0 -285.3,-62.5 -157,-173 211,-181.6 1040.5,-273.4 1354.8,-687.4 308.2,-406 572.5,-675 -125.5,-675 -13.8,0 -27.9,0.1 -42.4,0.4 -750.7,10.8 -2019.6,386.8 -2155.7,996.1 v 0 c -149.5,-48.1 -429.3,-372.8 -629.5,-625.2 l -0.3,-0.4 c -30.2,-43.7 -76,-103.4 -141.8,-183.4 l -0.2,-0.1 -0.1,-0.2 c -27.3,-36.2 -49.5,-66.1 -64.9,-87.1 l -1,-1.5 -0.5,-0.6 c -23.2,-34.2 -45.4,-70.2 -66.6,-107.9 m 887.8,1082.6 c 5.5,-49 17.1,-76.2 17.1,-76.2 -6,26.6 -11.6,51.9 -17.1,76.2"
         style="fill:#cde0fb;fill-opacity:1;fill-rule:nonzero;stroke:none"
         id="path24" />
      <path
         d="m 19342.9,13851.8 -607.3,-1431.7 -1195.3,-2818 c -13.5,5.5 -26.9,10.8 -40.3,16 -346.2,135.4 -722.8,209.6 -1116.7,209.6 -292.6,0 -575.6,-40.9 -843.5,-117.3 -131.2,-37.5 -258.8,-83.4 -382.2,-137.3 l -172.1,336.2 -0.3,0.3 v 0.1 l -0.1,0.3 -1223.2,2390.3 -708.8,1384.9 c 1007.5,485.5 2137.1,757.5 3330.2,757.5 1045.9,0 2043,-209.1 2951.8,-587.7 h 0.1 c 2.5,-1.1 5.1,-2.1 7.7,-3.2"
         style="fill:#56de56;fill-opacity:1;fill-rule:nonzero;stroke:none"
         id="path26" />
      <path
         d="m 13882.7,8538.1 c -10.6,-15 -21.2,-30.1 -31.7,-45.3 -337.9,-492.9 -535.8,-1089.3 -536.1,-1731.9 v -1.5 H 8700.12 c 0,1509.8 435.4,2917.9 1187.68,4105.6 l 1345.3,-783.6 2649.6,-1543.3"
         style="fill:#88b9ff;fill-opacity:1;fill-rule:nonzero;stroke:none"
         id="path28" />
      <path
         d="m 15157.6,9573.1 c -11.7,-5.1 -23.3,-10.1 -34.7,-15.4 -2.2,-1 -4.4,-2 -6.6,-2.9 -495.8,-225.1 -921,-578.1 -1233.6,-1016.7 l -2649.6,1543.3 -1345.3,783.6 c 767.5,1211.6 1864.6,2193.7 3165.3,2820.2 l 708.8,-1384.9 1223.2,-2390.3 0.1,-0.3 v -0.1 l 0.3,-0.3 172.1,-336.2"
         style="fill:#afcdfb;fill-opacity:1;fill-rule:nonzero;stroke:none"
         id="path30" />
      <path
         d="m 19451.6,6759.4 v 1.5 c -0.3,632.4 -192,1220.2 -520.3,1708.3 -8.8,13.2 -17.9,26.5 -26.9,39.6 l 2648.2,1542.5 1345.1,783.6 c 740.6,-1181.3 1168.8,-2578.5 1168.8,-4075.5 h -4614.9"
         style="fill:#ea642f;fill-opacity:1;fill-rule:nonzero;stroke:none"
         id="path32" />
      <path
         d="m 22897.7,10834.9 -1345.1,-783.6 -2648.2,-1542.5 c -335.3,482.3 -805.6,863.9 -1356.3,1090 -2.5,1.2 -5.2,2.2 -7.8,3.3 l 1195.3,2818 607.3,1431.7 c 1474,-615.7 2715.1,-1677.6 3554.8,-3016.9"
         style="fill:#f99746;fill-opacity:1;fill-rule:nonzero;stroke:none"
         id="path34" />
      <path
         d="m 17548.1,9598.8 c -2.5,1.2 -5.2,2.2 -7.8,3.3 -13.5,5.5 -26.9,10.8 -40.3,16 -346.2,135.4 -722.8,209.6 -1116.7,209.6 -292.6,0 -575.6,-40.9 -843.5,-117.3 -131.2,-37.5 -258.8,-83.4 -382.2,-137.3 -11.7,-5.1 -23.3,-10.1 -34.7,-15.4 l -1361,2742.6 c 794.8,377 1683.4,587.7 2621.4,587.7 833.5,0 1628,-166.5 2352.3,-467.9 L 17548.1,9598.8"
         style="fill:#85f585;fill-opacity:1;fill-rule:nonzero;stroke:none"
         id="path36" />
      <path
         d="m 13851,8492.8 c -337.9,-492.9 -535.8,-1089.3 -536.1,-1731.9 h -3058.6 c 0,1204.1 376.9,2373.3 976.8,3320.5 L 13851,8492.8"
         style="fill:#97c6ff;fill-opacity:1;fill-rule:nonzero;stroke:none"
         id="path38" />
      <path
         d="m 15122.9,9557.7 c -2.2,-1 -4.4,-2 -6.6,-2.9 -495.8,-225.1 -921,-578.1 -1233.6,-1016.7 -10.6,-15 -21.2,-30.1 -31.7,-45.3 l -2617.9,1588.6 c 610.5,944.9 1508.3,1727.3 2528.8,2218.9 l 1361,-2742.6"
         style="fill:#bbd5f9;fill-opacity:1;fill-rule:nonzero;stroke:none"
         id="path40" />
      <path
         d="m 22474.4,6760.9 h -3028 c -0.3,639.4 -190.1,1233.8 -515.1,1727.3 l 2620.4,1559.1 c 584.6,-952.6 922.7,-2079.1 922.7,-3286.4"
         style="fill:#fc7a4c;fill-opacity:1;fill-rule:nonzero;stroke:none"
         id="path42" />
      <path
         d="m 18931.3,8469.2 c -8.8,13.2 -17.9,26.5 -26.9,39.6 -335.3,482.3 -805.6,863.9 -1356.3,1090 l 1187.5,2821.3 c 1160.6,-484.8 2148.1,-1319.8 2817,-2368.8 8.7,-13.3 -2621.3,-1582.1 -2621.3,-1582.1"
         style="fill:#f7a76b;fill-opacity:1;fill-rule:nonzero;stroke:none"
         id="path44" />
      <path
         d="m 18374.3,6759.4 h -3982 c 0,465.4 159.7,893.7 427.5,1232.7 179.9,228.1 408.7,415.7 670.6,547.4 51.9,26 105.2,50 159.5,71.5 124.4,49.3 254.8,86.4 389.9,109.9 111.5,19.4 226.3,29.5 343.5,29.5 241.7,0 473.4,-43.1 687.8,-122.1 16.3,-5.8 32.3,-12.1 48.4,-18.5 338.8,-134.9 631.8,-360.1 849.2,-646 254.5,-334.3 405.6,-751.8 405.6,-1204.4"
         style="fill:#aec3ff;fill-opacity:1;fill-rule:nonzero;stroke:none"
         id="path46" />
      <path
         d="m 17704.9,6759.4 h -2643.2 c 0,343.2 130.9,655.8 345.3,890.7 91.8,100.6 198.7,186.8 317.3,255.1 73.4,42.4 151.4,77.9 232.8,105.6 127.7,43.5 264.2,67.9 406,70 6.8,0.2 13.4,0.2 20.2,0.2 147.2,0 288.7,-24 421,-68.5 18.1,-6.1 36,-12.5 53.6,-19.3 204.8,-78.8 384.8,-207 525.8,-370.1 200.1,-231.7 321.2,-533.5 321.2,-863.7"
         style="fill:#88b9ff;fill-opacity:1;fill-rule:nonzero;stroke:none"
         id="path48" />
      <path
         d="m 16464.6,6903.5 c -61.6,-21.2 -129.9,-25.3 -197.7,-8 -10.6,2.8 -21,5.9 -31.1,9.6 -10.3,3.6 -20.3,7.7 -29.9,12.2 -135.6,63.1 -216.4,208.4 -196.6,358.4 0.3,2.6 0.9,5.1 1.7,7.6 l 42.2,135.2 -0.1,0.1 165.9,532.2 187.8,602.6 300.7,964.4 105,336.9 v 0.4 l 0.1,0.1 v 0.2 l 577.3,1852.3 c 6.6,21.3 28.8,33.7 50.4,28.2 l 70.7,-18 c 21.4,-5.5 34.9,-26.7 30.7,-48.5 l -432.1,-2277.3 -192.9,-1017 -124.9,-657.9 -97.8,-515.6 -13.8,-72.6 -2.9,-15.3 c -0.5,-2.7 -1.3,-5.3 -2.2,-7.9 -37.6,-97.5 -116.3,-170 -210.5,-202.3"
         style="fill:#2b478b;fill-opacity:1;fill-rule:nonzero;stroke:none"
         id="path50" />
      <path
         d="m 16211.1,7321.2 c 31.3,80.8 122.3,120.9 203.1,89.5 80.8,-31.3 120.9,-122.2 89.6,-203.1 -31.4,-80.8 -122.3,-120.9 -203.1,-89.5 -80.9,31.3 -121,122.2 -89.6,203.1"
         style="fill:#f9ddbf;fill-opacity:1;fill-rule:nonzero;stroke:none"
         id="path52" />
      <path
         d="m 12378.5,10417.2 h 41.5 l 136.6,-176.2 v 176.2 h 44 v -254.9 h -37.5 l -140.6,181.4 v -181.4 h -44 v 254.9"
         style="fill:#ffffff;fill-opacity:1;fill-rule:nonzero;stroke:none"
         id="path54" />
      <path
         d="m 12874.5,10289.8 c 0,49.5 -36.1,90.7 -86.7,90.7 -50.6,0 -85.9,-40.5 -85.9,-90.7 0,-49.6 36,-90.7 86.6,-90.7 50.7,0 86,40.4 86,90.7 z m -219.6,0 c 0,71.7 55.3,131.8 133.6,131.8 78.3,0 133,-59.3 133,-131.8 0,-71.8 -55.4,-131.9 -133.7,-131.9 -78.3,0 -132.9,59.4 -132.9,131.9"
         style="fill:#ffffff;fill-opacity:1;fill-rule:nonzero;stroke:none"
         id="path56" />
      <path
         d="m 13086.1,10290.9 c 32,0 52.4,16.7 52.4,43.3 0,27.3 -19.7,42.3 -52.8,42.3 h -65.2 v -85.6 z m -110.4,126.3 h 113.6 c 59.8,0 94.7,-32 94.7,-81.2 0,-41.9 -25.1,-67 -60.8,-77.2 l 68.8,-96.5 h -52.8 l -63.3,88.9 h -55.4 v -88.9 h -44.8 v 254.9"
         style="fill:#ffffff;fill-opacity:1;fill-rule:nonzero;stroke:none"
         id="path58" />
      <path
         d="m 13239,10417.2 h 47.7 l 77.6,-120.5 77.5,120.5 h 47.8 v -254.9 h -44.8 v 182.8 l -80.5,-120.2 h -1.5 l -79.7,119.5 v -182.1 h -44.1 v 254.9"
         style="fill:#ffffff;fill-opacity:1;fill-rule:nonzero;stroke:none"
         id="path60" />
      <path
         d="m 13709.5,10263.6 -44.1,101.9 -43.7,-101.9 z m -64.1,155.5 h 41.5 l 112.2,-256.8 h -47.4 l -25.8,61.6 h -120.6 l -26.2,-61.6 h -45.9 l 112.2,256.8"
         style="fill:#ffffff;fill-opacity:1;fill-rule:nonzero;stroke:none"
         id="path62" />
      <path
         d="m 13842.8,10417.2 h 44.8 v -214.1 h 134 v -40.8 h -178.8 v 254.9"
         style="fill:#ffffff;fill-opacity:1;fill-rule:nonzero;stroke:none"
         id="path64" />
      <path
         d="m 15600,12301.8 h 189 v -40.1 h -144.2 v -66.3 h 127.8 v -40 h -127.8 v -68.5 h 146 v -40 H 15600 v 254.9"
         style="fill:#ffffff;fill-opacity:1;fill-rule:nonzero;stroke:none"
         id="path66" />
      <path
         d="m 15917.6,12176.5 -89.3,125.3 h 52.8 l 63.4,-91.4 63.8,91.4 h 51.3 l -88.9,-124.6 92.5,-130.3 h -52.8 l -67,96.5 -67.4,-96.5 h -51.3 l 92.9,129.6"
         style="fill:#ffffff;fill-opacity:1;fill-rule:nonzero;stroke:none"
         id="path68" />
      <path
         d="m 16080,12174.3 c 0,72.5 54.2,131.9 131.5,131.9 46.9,0 75.3,-16.4 99.8,-39.8 l -28.8,-33.1 c -20.4,19 -42.3,31.7 -71.4,31.7 -48.8,0 -84.1,-40.1 -84.1,-90.7 0,-49.9 35.3,-90.7 84.1,-90.7 31.3,0 51.3,12.8 73.2,33.2 l 28.8,-29.2 c -26.6,-27.6 -55.8,-45.1 -103.5,-45.1 -74.3,0 -129.6,57.9 -129.6,131.8"
         style="fill:#ffffff;fill-opacity:1;fill-rule:nonzero;stroke:none"
         id="path70" />
      <path
         d="m 16360,12301.8 h 189 v -40.1 h -144.2 v -66.3 h 127.8 v -40 h -127.8 v -68.5 h 146 v -40 H 16360 v 254.9"
         style="fill:#ffffff;fill-opacity:1;fill-rule:nonzero;stroke:none"
         id="path72" />
      <path
         d="m 16586.9,12084 26.9,32 c 24.4,-21.1 48.8,-33.1 80.5,-33.1 27.7,0 45.2,12.8 45.2,32.8 0,18.2 -10.2,28 -57.5,39.3 -54.3,12.8 -84.9,28.8 -84.9,76.5 0,43.7 36.4,73.9 87,73.9 37.2,0 66.7,-11.3 92.5,-32 l -24,-33.9 c -22.9,17.1 -45.9,26.2 -69.2,26.2 -26.2,0 -41.5,-13.4 -41.5,-30.9 0,-19.7 11.6,-28.4 60.4,-40.1 53.9,-13.1 82,-32.4 82,-75.4 0,-47.7 -37.5,-76.1 -91.1,-76.1 -38.9,0 -75.7,13.5 -106.3,40.8"
         style="fill:#ffffff;fill-opacity:1;fill-rule:nonzero;stroke:none"
         id="path74" />
      <path
         d="m 16816.3,12084 27,32 c 24.4,-21.1 48.8,-33.1 80.5,-33.1 27.6,0 45.1,12.8 45.1,32.8 0,18.2 -10.2,28 -57.5,39.3 -54.3,12.8 -84.9,28.8 -84.9,76.5 0,43.7 36.4,73.9 87.1,73.9 37.1,0 66.6,-11.3 92.5,-32 l -24.1,-33.9 c -22.9,17.1 -45.9,26.2 -69.2,26.2 -26.2,0 -41.5,-13.4 -41.5,-30.9 0,-19.7 11.7,-28.4 60.5,-40.1 53.9,-13.1 81.9,-32.4 81.9,-75.4 0,-47.7 -37.5,-76.1 -91,-76.1 -39,0 -75.8,13.5 -106.4,40.8"
         style="fill:#ffffff;fill-opacity:1;fill-rule:nonzero;stroke:none"
         id="path76" />
      <path
         d="m 15531.5,11864.8 h 48.5 l 60.8,-189 62.6,189.7 h 37.9 l 62.7,-189.7 60.8,189 h 47 l -88.9,-256.8 h -38.6 l -62.6,183.2 -62.7,-183.2 h -38.6 l -88.9,256.8"
         style="fill:#ffffff;fill-opacity:1;fill-rule:nonzero;stroke:none"
         id="path78" />
      <path
         d="m 15957.6,11864.8 h 189 v -40.1 h -144.2 v -66.3 h 127.9 v -40 h -127.9 v -68.5 h 146.1 v -40.1 h -190.9 v 255"
         style="fill:#ffffff;fill-opacity:1;fill-rule:nonzero;stroke:none"
         id="path80" />
      <path
         d="m 16204.2,11864.8 h 44.8 v -255 h -44.8 v 255"
         style="fill:#ffffff;fill-opacity:1;fill-rule:nonzero;stroke:none"
         id="path82" />
      <path
         d="m 16305.8,11737.3 c 0,71.4 54.6,131.8 131.4,131.8 44.5,0 71.8,-12.3 98,-34.5 l -28.4,-33.9 c -19.7,16.7 -39,27.3 -71.4,27.3 -47,0 -82.7,-41.1 -82.7,-90.7 0,-52.4 34.6,-91 86.7,-91 24.1,0 45.9,7.6 61.6,19.3 v 47.7 h -65.2 v 39 h 108.5 v -107.1 c -25.1,-21.5 -61.2,-39.7 -106.3,-39.7 -79.8,0 -132.2,56.8 -132.2,131.8"
         style="fill:#ffffff;fill-opacity:1;fill-rule:nonzero;stroke:none"
         id="path84" />
      <path
         d="m 16602.6,11864.8 h 44.8 v -106 h 121.6 v 106 h 44.8 v -255 h -44.8 v 107.5 h -121.6 v -107.5 h -44.8 v 255"
         style="fill:#ffffff;fill-opacity:1;fill-rule:nonzero;stroke:none"
         id="path86" />
      <path
         d="m 16942,11823.3 h -80.9 v 41.5 h 206.9 v -41.5 h -80.9 v -213.5 h -45.1 v 213.5"
         style="fill:#ffffff;fill-opacity:1;fill-rule:nonzero;stroke:none"
         id="path88" />
      <path
         d="m 18873.2,10289.8 c 0,49.5 -36.1,90.7 -86.7,90.7 -50.6,0 -86,-40.5 -86,-90.7 0,-49.6 36.1,-90.7 86.7,-90.7 50.6,0 86,40.4 86,90.7 z m -219.6,0 c 0,71.7 55.3,131.8 133.6,131.8 78.3,0 133,-59.3 133,-131.8 0,-71.8 -55.4,-131.9 -133.7,-131.9 -78.3,0 -132.9,59.4 -132.9,131.9"
         style="fill:#ffffff;fill-opacity:1;fill-rule:nonzero;stroke:none"
         id="path90" />
      <path
         d="m 19092.8,10202 c 30.5,0 49.1,12 49.1,35.7 0,21.5 -17.1,34.2 -52.4,34.2 h -71 v -69.9 z m -13.2,107.8 c 28.8,0 48.1,11.3 48.1,35.3 0,20.1 -16,32.5 -44.8,32.5 h -64.4 v -67.8 z m -105.2,107.4 h 114.4 c 29.1,0 52,-8 66.6,-22.5 11.3,-11.3 17.1,-25.2 17.1,-43 0,-30.6 -17.5,-47 -36.4,-56.8 29.9,-10.2 50.6,-27.3 50.6,-62.7 0,-45.5 -37.5,-69.9 -94.3,-69.9 h -118 v 254.9"
         style="fill:#ffffff;fill-opacity:1;fill-rule:nonzero;stroke:none"
         id="path92" />
      <path
         d="m 19237.3,10417.2 h 189 v -40 h -144.2 v -66.3 h 127.8 v -40.1 h -127.8 v -68.4 h 146 v -40.1 h -190.8 v 254.9"
         style="fill:#ffffff;fill-opacity:1;fill-rule:nonzero;stroke:none"
         id="path94" />
      <path
         d="m 19464.2,10199.4 26.9,32.1 c 24.4,-21.1 48.8,-33.1 80.5,-33.1 27.7,0 45.2,12.7 45.2,32.7 0,18.3 -10.2,28.1 -57.6,39.4 -54.2,12.7 -84.8,28.7 -84.8,76.4 0,43.8 36.4,74 87,74 37.2,0 66.7,-11.3 92.5,-32.1 l -24,-33.8 c -23,17.1 -45.9,26.2 -69.2,26.2 -26.2,0 -41.5,-13.5 -41.5,-31 0,-19.6 11.6,-28.4 60.4,-40 53.9,-13.1 82,-32.4 82,-75.4 0,-47.7 -37.5,-76.1 -91.1,-76.1 -38.9,0 -75.7,13.4 -106.3,40.7"
         style="fill:#ffffff;fill-opacity:1;fill-rule:nonzero;stroke:none"
         id="path96" />
      <path
         d="m 19716.9,10417.2 h 44.8 v -254.9 h -44.8 v 254.9"
         style="fill:#ffffff;fill-opacity:1;fill-rule:nonzero;stroke:none"
         id="path98" />
      <path
         d="m 19892.4,10375.7 h -80.8 v 41.5 h 206.8 v -41.5 h -80.8 v -213.4 h -45.2 v 213.4"
         style="fill:#ffffff;fill-opacity:1;fill-rule:nonzero;stroke:none"
         id="path100" />
      <path
         d="m 20140.8,10262.8 -101.2,154.4 h 52.8 l 71.4,-112.9 72.1,112.9 h 51.3 l -101.2,-153.3 v -101.6 h -45.2 v 100.5"
         style="fill:#ffffff;fill-opacity:1;fill-rule:nonzero;stroke:none"
         id="path102" />
      <path
         d="m 19596.7,8322.9 h 189 v -40.1 h -144.2 v -66.3 h 127.9 v -40 h -127.9 V 8108 h 146.1 v -40 h -190.9 v 254.9"
         style="fill:#ffffff;fill-opacity:1;fill-rule:nonzero;stroke:none"
         id="path104" />
      <path
         d="m 19914.3,8197.6 -89.2,125.3 h 52.8 l 63.3,-91.4 63.8,91.4 h 51.3 l -88.8,-124.6 92.5,-130.3 h -52.9 l -66.9,96.5 -67.4,-96.5 h -51.4 l 92.9,129.6"
         style="fill:#ffffff;fill-opacity:1;fill-rule:nonzero;stroke:none"
         id="path106" />
      <path
         d="m 20168.8,8281.4 h -80.8 v 41.5 h 206.8 v -41.5 H 20214 V 8068 h -45.2 v 213.4"
         style="fill:#ffffff;fill-opacity:1;fill-rule:nonzero;stroke:none"
         id="path108" />
      <path
         d="m 20452.5,8196.5 c 32.1,0 52.5,16.8 52.5,43.4 0,27.3 -19.7,42.2 -52.9,42.2 h -65.1 v -85.6 z m -110.3,126.4 h 113.6 c 59.7,0 94.7,-32.1 94.7,-81.2 0,-41.9 -25.1,-67 -60.8,-77.2 l 68.8,-96.5 h -52.8 l -63.4,88.8 H 20387 V 8068 h -44.8 v 254.9"
         style="fill:#ffffff;fill-opacity:1;fill-rule:nonzero;stroke:none"
         id="path110" />
      <path
         d="m 20605.5,8322.9 h 189 v -40.1 h -144.2 v -66.3 h 127.8 v -40 h -127.8 V 8108 h 146 v -40 h -190.8 v 254.9"
         style="fill:#ffffff;fill-opacity:1;fill-rule:nonzero;stroke:none"
         id="path112" />
      <path
         d="m 20849.5,8322.9 h 47.7 l 77.5,-120.6 77.6,120.6 h 47.7 V 8068 h -44.8 v 182.8 l -80.5,-120.2 h -1.4 l -79.8,119.4 v -182 h -44 v 254.9"
         style="fill:#ffffff;fill-opacity:1;fill-rule:nonzero;stroke:none"
         id="path114" />
      <path
         d="m 21165.5,8322.9 h 189.1 v -40.1 h -144.3 v -66.3 h 127.9 v -40 h -127.9 V 8108 h 146.1 v -40 h -190.9 v 254.9"
         style="fill:#ffffff;fill-opacity:1;fill-rule:nonzero;stroke:none"
         id="path116" />
      <path
         d="m 21409.5,8322.9 h 44.8 v -214.2 h 134 V 8068 h -178.8 v 254.9"
         style="fill:#ffffff;fill-opacity:1;fill-rule:nonzero;stroke:none"
         id="path118" />
      <path
         d="m 21662.6,8168.5 -101.2,154.4 h 52.8 l 71.4,-112.9 72.1,112.9 h 51.3 l -101.2,-153.3 V 8068 h -45.2 v 100.5"
         style="fill:#ffffff;fill-opacity:1;fill-rule:nonzero;stroke:none"
         id="path120" />
      <path
         d="m 20100,7758.4 c 0,49.5 -36,90.7 -86.7,90.7 -50.6,0 -85.9,-40.4 -85.9,-90.7 0,-49.5 36,-90.7 86.7,-90.7 50.6,0 85.9,40.5 85.9,90.7 z m -219.6,0 c 0,71.8 55.4,131.9 133.7,131.9 78.3,0 132.9,-59.4 132.9,-131.9 0,-71.7 -55.4,-131.8 -133.7,-131.8 -78.3,0 -132.9,59.4 -132.9,131.8"
         style="fill:#ffffff;fill-opacity:1;fill-rule:nonzero;stroke:none"
         id="path122" />
      <path
         d="m 20319.6,7670.7 c 30.6,0 49.2,12 49.2,35.6 0,21.5 -17.1,34.3 -52.5,34.3 h -71 v -69.9 z m -13.1,107.7 c 28.8,0 48.1,11.3 48.1,35.4 0,20 -16.1,32.4 -44.8,32.4 h -64.5 v -67.8 z m -105.3,107.5 h 114.4 c 29.1,0 52.1,-8 66.6,-22.6 11.3,-11.3 17.2,-25.1 17.2,-43 0,-30.6 -17.5,-47 -36.5,-56.8 29.9,-10.2 50.7,-27.3 50.7,-62.6 0,-45.5 -37.6,-69.9 -94.4,-69.9 h -118 v 254.9"
         style="fill:#ffffff;fill-opacity:1;fill-rule:nonzero;stroke:none"
         id="path124" />
      <path
         d="m 20464.2,7885.9 h 189 v -40.1 h -144.3 v -66.3 h 127.9 v -40 h -127.9 V 7671 h 146.1 v -40 h -190.8 v 254.9"
         style="fill:#ffffff;fill-opacity:1;fill-rule:nonzero;stroke:none"
         id="path126" />
      <path
         d="m 20691,7668.1 27,32.1 c 24.4,-21.2 48.8,-33.2 80.5,-33.2 27.6,0 45.1,12.8 45.1,32.8 0,18.2 -10.2,28 -57.5,39.3 -54.3,12.8 -84.9,28.8 -84.9,76.5 0,43.7 36.5,73.9 87.1,73.9 37.1,0 66.6,-11.3 92.5,-32 l -24.1,-33.9 c -22.9,17.1 -45.9,26.2 -69.2,26.2 -26.2,0 -41.5,-13.4 -41.5,-30.9 0,-19.7 11.7,-28.4 60.5,-40.1 53.9,-13.1 81.9,-32.4 81.9,-75.4 0,-47.7 -37.5,-76.1 -91,-76.1 -39,0 -75.8,13.5 -106.4,40.8"
         style="fill:#ffffff;fill-opacity:1;fill-rule:nonzero;stroke:none"
         id="path128" />
      <path
         d="m 20943.8,7885.9 h 44.8 V 7631 h -44.8 v 254.9"
         style="fill:#ffffff;fill-opacity:1;fill-rule:nonzero;stroke:none"
         id="path130" />
      <path
         d="m 21119.3,7844.4 h -80.9 v 41.5 h 206.9 v -41.5 h -80.9 V 7631 h -45.1 v 213.4"
         style="fill:#ffffff;fill-opacity:1;fill-rule:nonzero;stroke:none"
         id="path132" />
      <path
         d="m 21367.7,7731.5 -101.3,154.4 h 52.8 l 71.4,-112.9 72.1,112.9 h 51.4 l -101.3,-153.3 V 7631 h -45.1 v 100.5"
         style="fill:#ffffff;fill-opacity:1;fill-rule:nonzero;stroke:none"
         id="path134" />
      <path
         d="m 24665.1,3084.8 c 0,0 59.3,-636.9 -13,-672.5 l -925.6,1.9 c 0,0 0,106.9 148.7,130.6 148.6,23.7 409.8,110.8 454,304.6 44.2,193.9 335.9,235.4 335.9,235.4"
         style="fill:#ffb27d;fill-opacity:1;fill-rule:nonzero;stroke:none"
         id="path136" />
      <path
         d="m 24784.7,4727.7 c -34,-927.6 -102.5,-1805.2 -102.5,-1805.2 0,0 -43.9,-47 -182.8,-86.2 -100.1,-28.2 -170.2,13.1 -170.2,13.1 0,0 -64.6,519.3 -84.7,642.2 -21.2,130.3 -895.7,2740.9 -782.5,3703.5 79.5,675.7 447.4,1116.5 447.4,1116.5 h 721.9 c 0,0 1,-499.5 62.2,-1170.2 17.4,-190.1 39.5,-394 68,-604.1 54.7,-405.3 48.4,-1121.2 23.2,-1809.6"
         style="fill:#ffb27d;fill-opacity:1;fill-rule:nonzero;stroke:none"
         id="path138" />
      <path
         d="m 24784.7,4727.7 c -160.3,403.9 -605.1,1530 -657,1724.6 -63.5,238 -216,377.4 -216,377.4 l 781.8,311.7 c 17.4,-190.1 39.5,-394 68,-604.1 54.7,-405.3 48.4,-1121.2 23.2,-1809.6"
         style="fill:#f3a36c;fill-opacity:1;fill-rule:nonzero;stroke:none"
         id="path140" />
      <path
         d="m 24496.1,11791.9 c -194.4,48.5 -319.5,-40.9 -319.5,-40.9 -544.2,-64.1 -551.4,-718.2 -493.6,-928.9 57.8,-210.7 136.5,-433 -34.1,-765.3 -492.8,-959.9 945.7,-654.1 945.7,-654.1 -139.8,639.7 679,589.4 660.9,516.9 1034.6,-1.6 -317.3,1762 -759.4,1872.3"
         style="fill:#163560;fill-opacity:1;fill-rule:nonzero;stroke:none"
         id="path142" />
      <path
         d="m 23381.5,7504.4 c 0,0 92.3,-210.6 95.7,-268.8 3.5,-58.2 -24.1,-150.7 -43.4,-159.7 -19.4,-9 -29.9,110.7 -38.6,104.2 -8.7,-6.5 22.8,-196.7 -9.2,-216.5 -31.9,-19.9 -152.2,159.1 -169.7,243.1 -17.4,84.1 0.3,221.8 0.3,221.8 l 164.9,75.9"
         style="fill:#ffb27d;fill-opacity:1;fill-rule:nonzero;stroke:none"
         id="path144" />
      <path
         d="m 24318.5,9373.1 c 0,0 -135.6,-151.3 -257.1,-402.6 -49.9,-103.1 -97.3,-223.1 -132.1,-356.4 -84.1,-323.4 -414.2,-949.6 -527,-1158.8 -23.9,-44.3 -38.1,-69.9 -38.1,-69.9 l -149.8,28.5 c 0,0 92.9,840.9 157.5,1080.5 67.6,250.3 88.3,1029.3 192.3,1285 134.6,331 419.3,374.3 419.3,374.3 l 335,-780.6"
         style="fill:#ffb27d;fill-opacity:1;fill-rule:nonzero;stroke:none"
         id="path146" />
      <path
         d="m 24061.4,8970.5 c -49.9,-103.1 -97.3,-223.1 -132.1,-356.4 -84.1,-323.4 -240.5,-772.2 -527,-1158.8 0,0 47.1,518.4 143.7,677.4 96.7,159 108.5,1163.4 108.5,1163.4 l 406.9,-325.6"
         style="fill:#f3a36c;fill-opacity:1;fill-rule:nonzero;stroke:none"
         id="path148" />
      <path
         d="m 26059.5,3148.7 c 0,0 164.7,-150.4 132.5,-257.2 -32.1,-106.8 -180.8,-178 -200.9,-308.6 -20,-130.6 -100.4,-201.8 -172.7,-201.8 -72.3,0 -344.8,0 -344.8,0 0,0 -53.3,91.9 75.3,119.6 128.6,27.7 177.1,181.1 169,323.5 -8,142.5 12.1,332.4 12.1,332.4 l 273.2,63.3 56.3,-71.2"
         style="fill:#ffb27d;fill-opacity:1;fill-rule:nonzero;stroke:none"
         id="path150" />
      <path
         d="m 25039.9,8336.3 c 0,0 581.4,-262.4 715.3,-963.9 146,-764.3 -210.7,-1617.5 -129.9,-1977.4 80.9,-359.9 377.9,-1052.5 377.9,-2175.1 0,0 -30.9,-64.4 -126.2,-98.7 -30.5,-10.9 -114.6,-40.7 -154.2,-49.8 0,0 -37.3,142.6 -88.9,251.4 -233,491 -903.6,1568.8 -936.4,1839.5 -23.2,191.6 -225.2,1459.4 -665.7,2203.4 -105.8,178.6 64.9,888.9 64.9,888.9 l 943.2,81.7"
         style="fill:#ffb27d;fill-opacity:1;fill-rule:nonzero;stroke:none"
         id="path152" />
      <path
         d="m 25324.7,7654 c -190.5,427.2 -307,549.8 -284.8,682.3 16.6,98.7 -50.4,1839.8 -50.4,1839.8 -22.6,7 -67.9,13.3 -92.7,18.8 -78.1,17.3 -130.3,77.9 -169.7,147.6 -50.1,88.8 -103.7,265.4 -103.1,433.4 l -184,-9.8 -261,-85.1 c 0,0 65.2,-160.8 65.5,-282.4 0,-1.1 0,-2.1 0,-3.1 0.5,-105.6 -68.8,-198.8 -170.2,-228.1 -51.9,-15 -96.9,-27.8 -96.9,-27.8 0,0 -150.7,-430 -179.5,-871.9 -28.7,-441.8 274,-633.7 -2.2,-1516.6 -282,-901.8 1634.2,-333.1 1529,-97.1"
         style="fill:#ffb27d;fill-opacity:1;fill-rule:nonzero;stroke:none"
         id="path154" />
      <path
         d="m 24188,10646.5 c 0,0 56.2,-126.3 56.5,-247.9 230.2,34.1 330.7,218.9 380.4,335 l -436.9,-87.1"
         style="fill:#e8945b;fill-opacity:1;fill-rule:nonzero;stroke:none"
         id="path156" />
      <path
         d="m 25250.7,9405.9 c 0,0 91.6,-881 164.3,-1106 94.7,-293 0,-448.1 0,-448.1 l -920.8,-227.1 -808.4,114.8 c 0,0 -42.7,184.2 -22.9,334.4 20.1,153.4 102.7,275.3 104.4,506.3 3.2,429.3 -221.2,493.8 -145.5,853.7 82,389.5 355.5,705.8 355.5,705.8 0,0 439.7,-430.6 1012.2,36.5 l 261.2,-770.3"
         style="fill:#ffb27d;fill-opacity:1;fill-rule:nonzero;stroke:none"
         id="path158" />
      <path
         d="m 24193.1,10466.8 c 0,0 530.4,117.2 452.3,446.4 -78.1,329.2 -62.3,566.1 -404.2,505.1 -342,-60.9 -377.7,-202.1 -378.4,-318.3 -0.6,-116.2 190.3,-655.2 330.3,-633.2"
         style="fill:#ffb27d;fill-opacity:1;fill-rule:nonzero;stroke:none"
         id="path160" />
      <path
         d="m 23998.6,11369 c 0,0 236.8,-351.6 472.4,-355.8 235.6,-4.1 317.7,78.3 317.7,78.3 0,0 -202.5,94.7 -294.2,322.4 0,0 -430.6,164.9 -495.9,-44.9"
         style="fill:#163560;fill-opacity:1;fill-rule:nonzero;stroke:none"
         id="path162" />
      <path
         d="m 24042,11346.2 c 0,0 -97.7,-65.7 -123.2,-154.4 -25,-86.8 -37.6,-196.9 0.6,-319.2 0,0 -171.6,236.4 -84.5,414.1 92.3,188.4 207.1,59.5 207.1,59.5"
         style="fill:#163560;fill-opacity:1;fill-rule:nonzero;stroke:none"
         id="path164" />
      <path
         d="m 25790.3,6920.3 c 0,0 -449.5,109.1 -930.4,41.7 -190,-26.5 -384.9,-80.6 -558.9,-179.8 0,0 -518.3,104.5 -844.2,61.1 0,0 -108,431.3 185.1,1046.5 0,0 628.4,-45.5 1436.7,69.7 122.6,17.4 249.3,38.6 378.5,64.2 0,0 419.5,-442.8 333.2,-1103.4"
         style="fill:#ffe6cf;fill-opacity:1;fill-rule:nonzero;stroke:none"
         id="path166" />
      <path
         d="m 25345.4,8651.4 c -90,-23.7 -175.5,-44.7 -256.6,-63.5 C 23993.1,8334.8 23688,8507 23688,8507 c 0,0 -83.7,470.8 -33.5,772.1 50.2,301.3 329,874.6 329,874.6 l 107.6,19.2 c 0,0 -78.5,-330 -92.4,-441.8 -20.6,-164.6 150.9,-209.5 381.9,-168 367.3,66 458.1,652.8 458.1,652.8 87.3,3.7 158.3,-27 158.3,-27 -53.1,-327 6.1,-625.3 87,-854.2 l 0.1,-0.4 c 98.8,-278.9 229.8,-455 229.8,-455 l 31.5,-227.9"
         style="fill:#ffe6cf;fill-opacity:1;fill-rule:nonzero;stroke:none"
         id="path168" />
      <path
         d="m 25790.3,6920.3 c 0,0 -449.5,109.1 -930.4,41.7 388.7,418.8 218.7,997.5 218.7,997.5 122.6,17.4 249.3,38.6 378.5,64.2 0,0 419.5,-442.8 333.2,-1103.4"
         style="fill:#f2c9a5;fill-opacity:1;fill-rule:nonzero;stroke:none"
         id="path170" />
      <path
         d="m 24233.1,8230.1 c 0,-21.6 -12.1,-39 -27,-39 -15,0 -27.1,17.4 -27.1,39 0,21.6 12.1,39.1 27.1,39.1 14.9,0 27,-17.5 27,-39.1"
         style="fill:#e8945b;fill-opacity:1;fill-rule:nonzero;stroke:none"
         id="path172" />
      <path
         d="m 24997,10188.9 c 0,0 243.1,-64.5 331.9,-215.1 88.8,-150.7 604.2,-937.4 674.3,-1330.8 70.1,-393.4 -415.3,-1347.5 -415.3,-1347.5 l -130.8,89.9 c 0,0 57.7,1095.2 0,1207.4 -67.3,131.1 -143.2,286.5 -143.2,286.5 0,0 -291.5,666.5 -298.8,699.2 -79.9,358.5 -18.1,610.4 -18.1,610.4"
         style="fill:#ffb27d;fill-opacity:1;fill-rule:nonzero;stroke:none"
         id="path174" />
      <path
         d="m 25460.6,7455.3 c 0,0 -85.2,-24.4 -131.7,-52.4 -46.5,-27.9 -153.9,-138.1 -128.8,-157.6 25.1,-19.5 93,50.2 128.8,50.2 35.8,0 -165.1,-186.9 -148.4,-226 16.8,-39 247.1,-19.5 323.1,44.7 75.9,64.1 120.5,288.7 120.5,288.7 l -163.5,52.4"
         style="fill:#ffb27d;fill-opacity:1;fill-rule:nonzero;stroke:none"
         id="path176" />
      <path
         d="m 25345.4,8651.4 c -90,-23.7 -175.5,-44.7 -256.6,-63.5 -124.2,236.4 10.3,701.8 -4.7,746.4 98.8,-278.9 229.8,-455 229.8,-455 l 31.5,-227.9"
         style="fill:#f2c9a5;fill-opacity:1;fill-rule:nonzero;stroke:none"
         id="path178" />
      <path
         d="m 27616.3,2203 h -5824.9 v 211.6 h 5824.9 V 2203"
         style="fill:#b0d0ff;fill-opacity:1;fill-rule:nonzero;stroke:none"
         id="path180" />
      <path
         d="m 22196.6,2068.3 h -184.2 V 2203 h 184.2 v -134.7"
         style="fill:#2e3552;fill-opacity:1;fill-rule:nonzero;stroke:none"
         id="path182" />
      <path
         d="m 27201.6,2068.3 h -184.2 V 2203 h 184.2 v -134.7"
         style="fill:#2e3552;fill-opacity:1;fill-rule:nonzero;stroke:none"
         id="path184" />
      <path
         d="m 23226.9,5586.7 h -1625 c -35.6,0 -67.7,21.2 -81.5,54 l -148.1,348.7 c -16.4,38.6 12,81.5 53.9,81.5 h 1656.5 l 181.6,-427.7 c 11.3,-26.8 -8.3,-56.5 -37.4,-56.5"
         style="fill:#2e3552;fill-opacity:1;fill-rule:nonzero;stroke:none"
         id="path186" />
      <path
         d="m 23241.2,5586.7 h -1540.6 c -48,0 -91.4,28.7 -110.2,72.9 l -153.6,361.9 c -10,23.4 7.2,49.4 32.7,49.4 h 1614.3 c 46.7,0 88.8,-27.9 107.1,-70.8 l 126.5,-298.2 c 23.2,-54.6 -16.9,-115.2 -76.2,-115.2"
         style="fill:#b0d0ff;fill-opacity:1;fill-rule:nonzero;stroke:none"
         id="path188" />
      <path
         d="m 23194.5,5741 h -1527.4 l -117.2,276.2 h 1527.5 l 117.1,-276.2"
         style="fill:#ffffff;fill-opacity:1;fill-rule:nonzero;stroke:none"
         id="path190" />
      <path
         d="m 22444.2,2381.1 h -150.7 v 3290 h 150.7 v -3290"
         style="fill:#b0d0ff;fill-opacity:1;fill-rule:nonzero;stroke:none"
         id="path192" />
      <path
         d="m 10618.1,8081.2 v 134.9 h 51.9 v -133.6 c 0,-38.4 19.2,-58.3 50.9,-58.3 31.7,0 50.9,19.2 50.9,56.6 v 135.3 h 52 v -133.2 c 0,-71.5 -40.1,-106.6 -103.5,-106.6 -63.4,0 -102.2,35.4 -102.2,104.9"
         style="fill:#ffffff;fill-opacity:1;fill-rule:nonzero;stroke:none"
         id="path194" />
      <path
         d="m 10876.7,8216.1 h 47.9 l 110.6,-145.4 v 145.4 h 51.3 V 7980 h -44.2 L 10928,8130.1 V 7980 h -51.3 v 236.1"
         style="fill:#ffffff;fill-opacity:1;fill-rule:nonzero;stroke:none"
         id="path196" />
      <path
         d="m 11235.2,8026.9 c 42.5,0 71.2,28.7 71.2,71.1 0,41.9 -28.7,71.2 -71.2,71.2 h -40.1 v -142.3 z m -92,189.2 h 92 c 74.2,0 125.5,-51 125.5,-118.1 0,-66.4 -51.3,-118 -125.5,-118 h -92 v 236.1"
         style="fill:#ffffff;fill-opacity:1;fill-rule:nonzero;stroke:none"
         id="path198" />
      <path
         d="m 11406.9,8216.1 h 178.1 v -46.2 h -126.5 V 8122 h 111.3 v -46.2 h -111.3 v -49.6 h 128.1 V 7980 h -179.7 v 236.1"
         style="fill:#ffffff;fill-opacity:1;fill-rule:nonzero;stroke:none"
         id="path200" />
      <path
         d="m 11737.4,8101.4 c 25.3,0 39.8,13.5 39.8,34.1 0,22.2 -15.5,33.7 -40.8,33.7 h -51.6 v -67.8 z m -104.5,114.7 h 107.9 c 30,0 53.3,-8.5 68.8,-24 13.1,-13.1 20.2,-31.7 20.2,-54.6 0,-38.1 -20.6,-62.1 -50.6,-73.2 l 57.7,-84.3 h -60.7 l -51.3,75.6 h -40.1 V 7980 h -51.9 v 236.1"
         style="fill:#ffffff;fill-opacity:1;fill-rule:nonzero;stroke:none"
         id="path202" />
      <path
         d="m 11853.4,8216.1 h 55.7 l 48.9,-159.9 52.9,160.5 h 44.5 l 53,-160.5 48.9,159.9 h 54.3 l -80.6,-237.8 h -45.2 l -53.3,154.5 -53.3,-154.5 h -45.2 l -80.6,237.8"
         style="fill:#ffffff;fill-opacity:1;fill-rule:nonzero;stroke:none"
         id="path204" />
      <path
         d="m 12250,8216.1 h 178.1 v -46.2 h -126.5 V 8122 h 111.3 v -46.2 h -111.3 v -49.6 h 128.2 V 7980 H 12250 v 236.1"
         style="fill:#ffffff;fill-opacity:1;fill-rule:nonzero;stroke:none"
         id="path206" />
      <path
         d="m 12478.4,8216.1 h 51.9 V 7980 h -51.9 v 236.1"
         style="fill:#ffffff;fill-opacity:1;fill-rule:nonzero;stroke:none"
         id="path208" />
      <path
         d="m 12578.9,8098 c 0,67.1 52.2,122.1 123.7,122.1 42.5,0 68.1,-11.5 92.8,-32.4 l -32.8,-39.4 c -18.2,15.2 -34.3,23.9 -61.7,23.9 -37.7,0 -67.7,-33.4 -67.7,-74.2 0,-43.1 29.6,-74.8 71.4,-74.8 18.9,0 35.8,4.7 48.9,14.1 v 33.8 h -52.2 v 44.8 h 102.5 v -102.5 c -24.3,-20.6 -57.7,-37.4 -100.8,-37.4 -73.5,0 -124.1,51.6 -124.1,122"
         style="fill:#ffffff;fill-opacity:1;fill-rule:nonzero;stroke:none"
         id="path210" />
      <path
         d="m 12853.7,8216.1 h 52 v -93.4 h 95.7 v 93.4 h 52 V 7980 h -52 v 94.8 h -95.7 V 7980 h -52 v 236.1"
         style="fill:#ffffff;fill-opacity:1;fill-rule:nonzero;stroke:none"
         id="path212" />
      <path
         d="m 13165,8168.2 h -71.8 v 47.9 h 195.6 v -47.9 h -71.9 V 7980 h -51.9 v 188.2"
         style="fill:#ffffff;fill-opacity:1;fill-rule:nonzero;stroke:none"
         id="path214" />
      <path
         d="m 8634.8,10262.3 c 0,0 -211.78,366.6 -670.25,116.5 -324.57,-177 -256.15,-474.6 -342.71,-587 -86.56,-112.3 -569.62,-162 -430.69,-745.6 84.68,-355.7 1202.59,-856.9 1136.54,-1157.4 0,0 553.81,673.5 112.36,978.6 -200.07,138.3 -314.6,404.8 -299.62,461.7 14.99,56.8 494.37,933.2 494.37,933.2"
         style="fill:#2c3a64;fill-opacity:1;fill-rule:nonzero;stroke:none"
         id="path216" />
      <path
         d="m 8231.09,8500.1 c 0,0 306.36,-1267.5 607.1,-1520.8 95.14,-80.2 282.05,-241.3 437.79,-348.2 140.14,-96.2 186.82,-111 186.82,-111 l -129.94,-123.7 c 0,0 -26.23,50.4 -110.97,81.9 -224.44,83.5 -680.26,223.6 -801.42,366 -166.9,196.3 -623.86,1179.6 -623.86,1179.6 l 434.48,476.2"
         style="fill:#ffb27d;fill-opacity:1;fill-rule:nonzero;stroke:none"
         id="path218" />
      <path
         d="m 11724.6,3416.1 c 0,0 -117.8,-260.2 -547.8,-463.7 l -0.3,-0.1 C 10995.8,2867 10760,2791.4 10454.7,2749.6 9513.82,2301.2 9027.12,2609.8 9027.12,2609.8 7774.67,3113.2 7257.48,4801.5 8166.08,5490.2 c 265.72,201.4 533.08,261.7 767.14,256.6 409.9,-9.2 810.75,110.7 1148.18,343.2 192.9,132.7 449.5,229.1 782.1,206.5 154.6,-10.4 297.3,-50.8 426.6,-115.6 l 15.2,-7.6 c 810.1,-420.9 1081.2,-1805.5 419.3,-2757.2"
         style="fill:#ef802e;fill-opacity:1;fill-rule:nonzero;stroke:none"
         id="path220" />
      <path
         d="m 11724.6,3416.1 c 0,0 -117.8,-260.2 -547.8,-463.7 l -0.3,-0.1 c -508,-199.4 -341.7,76.5 -907.3,-92.6 -565.82,-169.2 -957.26,-83.4 -1567.56,677.3 -610.3,760.8 -570.12,1662.7 -41.09,1923.6 529.03,260.8 941.77,-95.2 1509.75,572.7 392.5,461.5 1119.8,147.6 1119.8,147.6 l 15.2,-7.6 c 810.1,-420.9 1081.2,-1805.5 419.3,-2757.2"
         style="fill:#f99746;fill-opacity:1;fill-rule:nonzero;stroke:none"
         id="path222" />
      <path
         d="m 10302.6,7210.2 c 343.6,-269.2 559.1,-547 559.1,-547 0,0 -598.6,-156.1 -824,-3.3 -266.06,180.3 -363.6,169.4 -616.05,176 0,0 537.48,643.5 880.95,374.3"
         style="fill:#82b378;fill-opacity:1;fill-rule:nonzero;stroke:none"
         id="path224" />
      <path
         d="m 9565.48,5667.7 v 0 c -219.92,253 -256.84,637.4 -249.08,915.3 6.19,221.1 52.19,530.9 76.07,678.8 5.04,31.3 45.51,40.4 63.62,14.4 l 47.98,-68.7 c 48.07,-68.9 63.83,-155.2 42.77,-236.5 -64.74,-249.9 -173.98,-821.3 63.54,-1193.9 26.71,-41.9 -5.74,-154.8 -44.9,-109.4"
         style="fill:#2b478b;fill-opacity:1;fill-rule:nonzero;stroke:none"
         id="path226" />
      <path
         d="m 10780,6013.8 c 0,0 443.4,-0.9 545.8,-305.3 102.5,-304.4 -200.8,-364 -398,-251.9 -197.2,112.2 -391,496.1 -147.8,557.2"
         style="fill:#ffb380;fill-opacity:1;fill-rule:nonzero;stroke:none"
         id="path228" />
      <path
         d="m 5351.75,6273.4 c 2.69,-4.8 5.56,-9.9 8.43,-14.9 67.03,-116.5 220.83,-402 390.22,-714.5 80.13,-148.2 164.01,-302.5 243.6,-447.7 137.13,-250.6 261.88,-473.8 334.66,-591.7 74.03,-120 128.52,-204.2 150.57,-237.9 l 0.18,-0.2 c 6.63,-10.4 8.07,-22.6 7.17,-34.8 -7.71,-105.7 -5.55,-210.8 4.84,-314.2 102.17,-1016.5 787.62,-1561.3 787.62,-1561.3 l 203.81,-30.1 c 0,0 -288.41,1068.5 -373.38,1672.6 -14.34,102.4 -20.61,185.4 -15.59,239.5 15.06,157.4 -12.91,388.4 -65.78,653.7 -94.11,471.4 -266.73,1050.1 -416.76,1513.2 -9.5,29.6 -296.12,1066.4 -296.12,1066.4 -240.55,-210.3 -1117.98,-297 -1117.98,-297 0,0 -148.78,-361.7 154.51,-901.1"
         style="fill:#aec3ff;fill-opacity:1;fill-rule:nonzero;stroke:none"
         id="path230" />
      <path
         d="m 7910.6,2068.3 h -850.61 c 0,0 -20.39,129.6 24.04,227.9 42.58,94.4 103.26,97.4 7.75,245.4 54.05,-55.7 227.8,-78.7 350.77,-62.2 15.07,-24.4 97.15,-188.3 147.47,-224.4 55.59,-40 303.46,-25.7 320.58,-186.7"
         style="fill:#2b478b;fill-opacity:1;fill-rule:nonzero;stroke:none"
         id="path232" />
      <path
         d="m 5351.75,6273.4 c 2.69,-4.8 5.56,-9.9 8.43,-14.9 67.03,-116.5 429.6,-786.2 598.99,-1098.6 C 5762.89,5967.4 5899.4,6775 5899.4,6775 l -547.65,-501.6"
         style="fill:#8fa2ff;fill-opacity:1;fill-rule:nonzero;stroke:none"
         id="path234" />
      <path
         d="m 8518.79,10313.9 c 5.56,22.3 -485.83,-222.1 -510.74,-249.8 -230.46,-255.6 -164.74,-589.2 -32.88,-592.4 84.58,-2 68.18,-142.6 68.18,-142.6 l 942.16,398.5 c 0,0 -113.44,661.5 -466.72,586.3"
         style="fill:#2c3a64;fill-opacity:1;fill-rule:nonzero;stroke:none"
         id="path236" />
      <path
         d="m 8202.18,8690.4 c 0,0 143.38,-286.4 125.48,-518.8 0,0 -172.88,-272.9 -621.25,-342 0,0 385.49,861 495.77,860.8"
         style="fill:#f9ddbf;fill-opacity:1;fill-rule:nonzero;stroke:none"
         id="path238" />
      <path
         d="m 6014.86,7111.2 2.88,159 C 5700.77,7230.3 4924.83,7649 4924.83,7649 c 0,0 -331.61,-220.5 -377,-850.4 C 4525.67,6491.2 4385.5,5191 4370,4802.8 c -5.66,-140.7 -7.53,-241.2 -8.17,-281.3 l 0.04,-0.4 c -0.19,-12.2 -5.94,-23 -13.48,-32.7 C 4282.81,4405 4225.91,4316.7 4176.64,4225.1 3692.97,3325.2 3945.9,2102.4 3945.9,2102.4 l 112.32,28.6 c 0,0 408.97,1267.6 676.26,1815.9 45.36,93 86.57,165.3 121.05,207.2 100.5,122.1 206.47,329.4 310.93,578.8 197.45,471.7 848.4,2378.3 848.4,2378.3"
         style="fill:#aec3ff;fill-opacity:1;fill-rule:nonzero;stroke:none"
         id="path240" />
      <path
         d="m 4622.32,2068.3 h -850.6 c 0,0 -20.39,129.6 24.04,227.9 42.57,94.4 109.25,137.3 93.29,251.5 54.05,-55.6 142.14,-118 265.11,-101.4 15.07,-24.4 97.26,-155.2 147.59,-191.3 55.59,-40 303.46,-25.7 320.57,-186.7"
         style="fill:#2b478b;fill-opacity:1;fill-rule:nonzero;stroke:none"
         id="path242" />
      <path
         d="m 7648.98,7646.9 c -114.25,-19.5 18.66,-110.3 -138.49,-127.4 -223.66,-24.4 -454.59,-41.1 -575.56,-89.3 -44.11,-17.6 -73.63,-39.4 -82.84,-67.2 -52.43,-157.6 -384.52,-428.6 -384.52,-428.6 -1481.14,67.4 -1576.54,727.6 -1576.54,727.6 961.28,933.6 1779.08,1442.5 2454.96,1505.5 164.5,15.3 386.22,-5.3 490.25,-51.6 236.39,-105.2 365.94,-425.5 365.94,-425.5 0,0 -119.07,-969.4 -553.2,-1043.5"
         style="fill:#f9ddbf;fill-opacity:1;fill-rule:nonzero;stroke:none"
         id="path244" />
      <path
         d="m 7510.49,7519.5 c -223.66,-24.4 -454.59,-41.1 -575.56,-89.3 -49.43,738.7 299.17,1294.3 299.17,1294.3 0,0 227.4,-925.4 276.39,-1205"
         style="fill:#f2c9a5;fill-opacity:1;fill-rule:nonzero;stroke:none"
         id="path246" />
      <path
         d="m 7703.46,8849.5 c 0,0 -562.46,30.8 -662.41,-322.4 -99.94,-353.1 187.51,-1762.6 249.46,-1908.1 112.77,-264.9 647.57,-1055.5 647.57,-1055.5 l 194.28,59 c 0,0 -344.23,1192 -425.95,1306.3 -128.31,179.4 165.41,1767.1 -2.95,1920.7"
         style="fill:#ffb27d;fill-opacity:1;fill-rule:nonzero;stroke:none"
         id="path248" />
      <path
         d="m 8053.12,5856.5 c 0,0 64.42,-189.8 87.41,-258.3 12.09,-36.1 48.87,-58.4 61.92,-74.3 37.84,-46.2 147.93,-158.1 149.85,-223.6 0,0 -5.55,-29 -29.16,-23.7 -19.34,4.3 -77.87,59.6 -121.53,76.2 -13.57,5.2 -28.44,-2.9 -31.35,-17.1 -6.03,-29.6 -13.24,-84.7 2.68,-133.3 13.43,-41 44.75,-235.1 10.18,-236.2 -114.85,-3.3 -179.21,166.7 -216.66,259.2 -21.18,52.3 -21.48,166.7 -16.47,268.2 5.02,101.8 -131.15,291.8 -131.15,291.8 l 234.28,71.1"
         style="fill:#ffb27d;fill-opacity:1;fill-rule:nonzero;stroke:none"
         id="path250" />
      <path
         d="m 6930.13,8054.9 c 1.47,-8.3 532.27,-97.7 864.25,70.9 0,0 277.36,868.8 -118.99,827.3 -396.35,-41.6 -631.05,-166.4 -641.03,-356.2 -9.99,-189.8 -104.23,-542 -104.23,-542"
         style="fill:#f9ddbf;fill-opacity:1;fill-rule:nonzero;stroke:none"
         id="path252" />
      <path
         d="m 7823.6,9055 c 42.26,-132.5 183.22,-509.8 378.58,-364.6 -6.63,28.1 34.41,110.1 82.81,193.2 61.85,106.3 135.51,215 135.51,215 l -318.34,278.9 -19.01,16.6 c -83.24,-145.3 -165.11,-215.3 -236.81,-268.8 -21.79,-16.3 -31.01,-44.4 -22.74,-70.3"
         style="fill:#ffb27d;fill-opacity:1;fill-rule:nonzero;stroke:none"
         id="path254" />
      <path
         d="m 8420.47,9098.4 c 0,0 -73.59,-108.4 -135.45,-214.8 -197.87,122 -198.09,367 -182.84,493.9 l 318.29,-279.1"
         style="fill:#ed985f;fill-opacity:1;fill-rule:nonzero;stroke:none"
         id="path256" />
      <path
         d="m 8429.3,8958.7 c 0,0 -480.44,267.3 -309.35,564 171.09,296.6 224.3,530.9 538.28,372.7 313.99,-158.1 307.78,-305.4 274.75,-418.3 -33.02,-112.9 -374.3,-580.3 -503.68,-518.4"
         style="fill:#ffb27d;fill-opacity:1;fill-rule:nonzero;stroke:none"
         id="path258" />
      <path
         d="m 9014.14,9650.1 c -22.01,131.7 -88.91,144.3 -135.56,135.5 -177.43,293.4 -467.3,178.9 -467.3,178.9 -154.82,-194.3 -378.67,-227.4 -378.67,-227.4 0,0 55.76,-103.8 285.46,-168 70.17,-19.6 149.81,-7.7 226.61,18.1 -159.37,-88.8 -326.03,-122.9 -326.03,-122.9 302.71,-27.7 590.73,249.1 620.6,278.7 13.97,-42.9 38.46,-132.7 23.8,-198.3 -19.93,-89.2 -16.28,-167.2 -50.77,-271.7 0,0 234.86,179.6 201.86,377.1"
         style="fill:#2c3a64;fill-opacity:1;fill-rule:nonzero;stroke:none"
         id="path260" />
      <path
         d="m 9479.01,6592.6 c 0,0 -7.84,4.5 -26.53,-28.1 -15.31,-26.6 -23.35,-24.4 -66.18,-50.2 -80.28,-48.3 -26.67,-106.4 47.36,-135.5 52.96,-20.9 85.41,12.7 90.77,33.7 9.4,36.7 20.81,114.6 -45.42,180.1"
         style="fill:#ffb27d;fill-opacity:1;fill-rule:nonzero;stroke:none"
         id="path262" />
      <path
         d="m 9233.7,6553.6 c 0,0 70.04,-52.4 133.26,41.1 13.39,19.8 68.11,33.1 76.73,39.4 28.18,20.7 37.72,35.6 32.43,46.8 -2.51,5.3 -9.16,7.5 -15.28,5.2 -18.77,-7 -70.29,-23.3 -142.52,-22.5 -14.33,0.2 -54.52,-21.2 -59.91,-26.4 -17.42,-16.6 -50.79,-73 -24.71,-83.6"
         style="fill:#ffb27d;fill-opacity:1;fill-rule:nonzero;stroke:none"
         id="path264" />
      <path
         d="m 14093,3504.6 c 331.8,0 531.9,117.1 531.9,380.6 0,229.3 -170.8,370.8 -556.3,370.8 H 13200 v -751.4 z m -200.1,1376 c 331.9,0 541.7,107.4 541.7,370.9 0,224.4 -175.7,351.3 -492.9,351.3 H 13200 v -722.2 z m -1424.8,1381 H 14054 c 390.3,0 697.8,-107.4 892.9,-302.6 156.2,-156.1 234.3,-346.4 234.3,-590.4 0,-385.5 -205,-600.2 -449,-736.9 395.3,-151.2 639.3,-380.6 639.3,-849 0,-624.6 -507.5,-936.9 -1278.5,-936.9 h -1624.9 v 3415.8"
         style="fill:#afcdfb;fill-opacity:1;fill-rule:nonzero;stroke:none"
         id="path266" />
      <path
         d="m 15991,6261.6 h 810.1 l 897.8,-1444.4 897.9,1444.4 h 810 V 2845.8 h -746.6 v 2230 l -961.3,-1459 h -19.5 l -951.5,1444.4 V 2845.8 H 15991 v 3415.8"
         style="fill:#afcdfb;fill-opacity:1;fill-rule:nonzero;stroke:none"
         id="path268" />
      <path
         d="m 20260.6,6261.6 h 751.5 V 2845.8 h -751.5 v 3415.8"
         style="fill:#afcdfb;fill-opacity:1;fill-rule:nonzero;stroke:none"
         id="path270" />
      <path
         d="M 30806,1997.8 H 1092.05 c -17.53,0 -31.87,14.3 -31.87,31.9 v 6.7 c 0,17.5 14.34,31.9 31.87,31.9 H 30806 c 17.5,0 31.8,-14.4 31.8,-31.9 v -6.7 c 0,-17.6 -14.3,-31.9 -31.8,-31.9"
         style="fill:#2e3552;fill-opacity:1;fill-rule:nonzero;stroke:none"
         id="path272" />
    </g>
  </g>
</svg>
